PathFileType	4	(X/Y/Z)	D:\TRACE\spotREDO_2-26-24\spot_Both_Motion_3_10-platform.trc
DataRate	CameraRate	NumFrames	NumMarkers	Units	OrigDataRate	OrigDataStartFrame	OrigNumFrames
100.00	100.00	      61	5	mm	100.00	1751	      7000
Frame#	Time	Left_Front			Right_Front			Left_Aft			Right_Aft			Post			
		X1	Y1	Z1	X2	Y2	Z2	X3	Y3	Z3	X4	Y4	Z4	X5	Y5	Z5	

1751	17.500	-721.01886	-3.85176	-575.79193	693.61340	4.77181	-491.06778	-792.71112	4.10310	642.74420	776.79156	11.12176	648.14618	-26.68328	622.93353	-981.81702	
1752	17.510	-721.06500	-3.86220	-575.72961	693.55963	4.67245	-491.05978	-792.75446	4.06294	642.75586	776.64453	10.90412	648.09705	-26.67243	622.94928	-981.73425	
1753	17.520	-721.02545	-3.91816	-575.76660	693.44031	4.92547	-491.16595	-792.76550	3.98783	642.79254	776.51678	10.74329	648.04529	-26.60648	622.93890	-981.76392	
1754	17.530	-720.99689	-3.86975	-575.75208	693.48041	5.01627	-491.13437	-792.71558	4.00614	642.78461	776.53680	10.75991	648.07947	-26.63789	622.95056	-981.89563	
1755	17.540	-720.99475	-3.82503	-575.74597	693.48663	5.19620	-491.11896	-792.70599	4.01166	642.80865	776.57263	10.81208	648.07233	-26.72219	623.06873	-982.05042	
1756	17.550	-721.02325	-3.77219	-575.70447	693.47894	5.16828	-491.14807	-792.69012	4.05452	642.85004	776.70270	10.91705	648.11072	-26.68955	623.06696	-982.25366	
1757	17.560	-720.97272	-3.76433	-575.70313	693.46912	5.21597	-491.15515	-792.63611	3.91843	642.89545	776.57574	10.76470	648.10651	-26.62606	622.99939	-982.39050	
1758	17.570	-720.98053	-3.73976	-575.70905	693.56763	5.14692	-491.09366	-792.63971	3.86425	642.82135	776.54462	10.65334	648.07373	-26.60663	622.98383	-982.45154	
1759	17.580	-720.94086	-3.79174	-575.73828	693.59204	5.14336	-491.10498	-792.61969	3.83534	642.84814	776.58356	10.66044	648.10687	-26.58393	622.99701	-982.43640	
1760	17.590	-720.83936	-3.75025	-575.69861	693.59351	5.24752	-491.12720	-792.58948	3.89243	642.90381	776.64825	10.69657	648.10278	-26.60959	623.06622	-982.29883	
1761	17.600	-720.73260	-3.66618	-575.70221	693.65491	5.28134	-491.12543	-792.43622	3.86068	642.84833	776.94470	10.95193	648.13287	-26.54869	623.12305	-982.13745	
1762	17.610	-720.72198	-3.60270	-575.69989	693.75006	5.26489	-491.13394	-792.43890	4.00652	642.85596	777.05151	11.00729	648.07361	-26.32884	623.09558	-981.83270	
1763	17.620	-720.69342	-3.71691	-575.72870	694.00842	4.88142	-491.05713	-792.38086	3.94756	642.78973	777.00732	10.90991	648.02734	-26.28490	622.99933	-981.67834	
1764	17.630	-720.66321	-3.77646	-575.81403	694.08197	4.82975	-491.02591	-792.34930	3.98804	642.78143	777.08203	10.93057	648.04755	-26.11833	622.77869	-981.50214	
1765	17.640	-720.72772	-3.90752	-575.77740	694.11407	4.76130	-491.03799	-792.31964	4.07826	642.76611	777.20654	11.12322	648.07867	-26.29025	622.84570	-981.66772	
1766	17.650	-720.64435	-3.89448	-575.83801	694.12268	4.77080	-491.07324	-792.38373	4.12952	642.74536	777.39276	11.31877	648.06433	-26.30933	622.78497	-981.84497	
1767	17.660	-720.66711	-3.92761	-575.81171	694.09418	4.73885	-491.08417	-792.39502	4.20523	642.72217	777.32074	11.40822	648.13263	-26.31512	622.68616	-982.25873	
1768	17.670	-720.66583	-4.02196	-575.87933	694.10608	4.68571	-491.08588	-792.39319	4.25695	642.69946	777.34393	11.43151	648.15942	-26.37652	622.55182	-982.62177	
1769	17.680	-720.66827	-4.12742	-575.92432	694.15448	4.58211	-491.08810	-792.39197	4.33221	642.65796	777.34473	11.42270	648.13983	-26.49165	622.39398	-982.93115	
1770	17.690	-720.63037	-4.31060	-575.93872	694.13940	4.54116	-491.09201	-792.36414	4.37011	642.64502	777.33820	11.42040	648.14221	-26.58780	622.31775	-983.17444	
1771	17.700	-720.63025	-4.32142	-576.01733	694.19867	4.53177	-491.09442	-792.36444	4.37557	642.65479	777.34686	11.43757	648.14453	-26.43645	622.20392	-983.32123	
1772	17.710	-720.64734	-4.31725	-575.96069	694.27435	4.55277	-491.02844	-792.31128	4.40961	642.60144	777.29547	11.47677	648.01147	-26.37588	622.13342	-983.38214	
1773	17.720	-720.64905	-4.36059	-575.92267	694.29858	4.48718	-491.03976	-792.27100	4.47872	642.68353	777.28558	11.50682	648.01819	-26.43729	622.09955	-983.37952	
1774	17.730	-720.66583	-4.47383	-575.98846	694.36438	4.40151	-491.03177	-792.30249	4.47438	642.63104	777.29602	11.50111	648.02661	-26.47115	622.03528	-983.33319	
1775	17.740	-720.62885	-4.51921	-576.00800	694.32751	4.26858	-491.05911	-792.24542	4.51038	642.65906	777.29718	11.52696	648.02374	-26.43518	622.01813	-983.19977	
1776	17.750	-720.63580	-4.59390	-575.96906	694.31293	4.15375	-491.10849	-792.17578	4.57298	642.59210	777.36646	11.58676	648.01337	-26.29765	621.95581	-982.98627	
1777	17.760	-720.68585	-4.60835	-576.02069	694.31238	4.12079	-491.10742	-792.19220	4.62114	642.64197	777.29846	11.61652	648.00403	-26.26051	621.87408	-982.82452	
1778	17.770	-720.66693	-4.66943	-576.00879	694.34833	4.17504	-491.22012	-792.11389	4.69532	642.53107	777.29456	11.79348	647.90472	-26.15489	621.65021	-982.74567	
1779	17.780	-720.66412	-4.74514	-576.05280	694.31415	4.02301	-491.20261	-792.14337	4.69175	642.55994	777.30743	11.80118	647.94336	-26.08046	621.41534	-982.82581	
1780	17.790	-720.66010	-4.83524	-576.03961	694.32147	3.83631	-491.27185	-792.10352	4.77145	642.52820	777.30066	11.85522	647.85974	-26.12540	621.22327	-983.03302	
1781	17.800	-720.68842	-4.89125	-576.08215	694.23859	3.83044	-491.31265	-792.07831	4.80611	642.52936	777.26166	12.01500	647.90167	-26.36824	621.13281	-983.30389	
1782	17.810	-720.66193	-4.94993	-576.04431	694.26758	3.77116	-491.36469	-791.91663	4.96946	642.46881	777.29797	12.11963	647.79816	-26.36083	620.99316	-983.60345	
1783	17.820	-720.68744	-4.95333	-576.04675	694.14685	3.72135	-491.37677	-791.94940	5.07567	642.49475	777.14679	12.25655	647.78790	-26.35762	620.83563	-983.89490	
1784	17.830	-720.65826	-4.99889	-576.11578	694.21301	3.67338	-491.37082	-791.96973	5.17801	642.45410	777.18591	12.32655	647.71729	-26.35029	620.68878	-984.26697	
1785	17.840	-720.63983	-5.10365	-576.15472	694.19427	3.58879	-491.43787	-791.97528	5.28111	642.44080	777.11896	12.41975	647.69550	-26.39728	620.53455	-984.76886	
1786	17.850	-720.55341	-5.19023	-576.25916	694.15314	3.50059	-491.48074	-792.03815	5.39162	642.37671	777.17853	12.45106	647.68628	-26.34377	620.30591	-985.06702	
1787	17.860	-720.52240	-5.25689	-576.29559	694.18994	3.44851	-491.49057	-792.01910	5.48862	642.33582	777.21356	12.54967	647.66473	-26.33020	620.13220	-985.17059	
1788	17.870	-720.45251	-5.57225	-576.20648	694.15332	3.36407	-491.50565	-792.07281	5.60708	642.32471	777.08441	12.84397	647.62695	-26.26348	619.89209	-985.08868	
1789	17.880	-720.34998	-5.70280	-576.25342	694.18146	3.29049	-491.47339	-792.11847	5.79679	642.28186	776.94568	13.04770	647.61908	-26.21171	619.75543	-984.94250	
1790	17.890	-720.35626	-5.68198	-576.28589	694.40387	2.96510	-491.38467	-792.13300	6.04252	642.18488	777.05701	12.92117	647.59943	-26.23648	619.67212	-984.75922	
1791	17.900	-720.35101	-5.73828	-576.31970	694.39722	2.93604	-491.41302	-792.11823	6.08450	642.12207	776.94177	13.09614	647.61407	-26.17354	619.48657	-984.41656	
1792	17.910	-720.41412	-5.75381	-576.27570	694.42218	2.85859	-491.45129	-792.11102	6.00808	642.12598	776.96350	13.24374	647.62341	-26.08629	619.23547	-984.52368	
1793	17.920	-720.26379	-6.11883	-576.39618	694.41980	2.79587	-491.42502	-792.16724	6.39789	642.00739	776.91650	13.21342	647.57648	-26.20940	619.14514	-984.52100	
1794	17.930	-720.29211	-6.38554	-576.25964	694.41266	2.76855	-491.45587	-792.19836	6.35832	641.98157	777.08435	13.57145	647.42859	-26.23954	619.03851	-984.78131	
1795	17.940	-720.47076	-6.13154	-576.28448	694.37933	2.71733	-491.52386	-792.25653	6.51327	641.95538	777.26575	13.81459	647.37701	-26.29645	618.70947	-985.28339	
1796	17.950	-720.40436	-6.46916	-576.49237	694.41821	2.59643	-491.54309	-792.23358	6.72520	641.93384	777.24219	13.82405	647.34674	-26.33123	618.30322	-985.58264	
1797	17.960	-720.57196	-6.65878	-576.53082	694.20862	2.47361	-491.62460	-792.36536	6.75011	641.93744	777.26910	13.93396	647.33978	-26.33815	618.06830	-985.98389	
1798	17.970	-720.68427	-6.83718	-576.58105	693.97974	2.36552	-491.70093	-792.50427	6.87728	641.89771	777.17249	13.96639	647.30988	-26.33979	618.00238	-986.10773	
1799	17.980	-720.83026	-6.96479	-576.59662	693.81219	2.30271	-491.74750	-792.61102	7.00109	641.93817	777.09113	14.11847	647.32886	-26.67409	617.96082	-986.44324	
1800	17.990	-720.91797	-7.04469	-576.67841	693.67224	2.23302	-491.78082	-792.74701	7.08117	641.92896	776.96997	14.42902	647.28729	-26.72496	617.72034	-986.77441	
1801	18.000	-720.97546	-7.19136	-576.65692	693.59637	2.17137	-491.79071	-792.77710	7.18561	641.87018	776.89227	14.58101	647.26208	-26.76270	617.39044	-987.03461	
1802	18.010	-720.99872	-7.26593	-576.63800	693.56598	2.10802	-491.83228	-792.82190	7.22154	641.85712	776.82745	14.62803	647.24231	-26.82936	617.25397	-987.14349	
1803	18.020	-721.03510	-7.29183	-576.62683	693.42047	1.87793	-491.88257	-792.85168	7.28462	641.80511	776.81934	14.73916	647.19641	-26.94270	617.09033	-987.06244	
1804	18.030	-721.05371	-7.39356	-576.59497	693.32111	1.84521	-491.98410	-792.91656	7.37174	641.70203	776.72638	14.80345	647.19653	-27.07159	616.89270	-987.03888	
1805	18.040	-721.10541	-7.41908	-576.58685	693.24481	1.70667	-491.99045	-792.99762	7.46876	641.71069	776.62122	14.88879	647.21320	-27.08743	616.59436	-986.91162	
1806	18.050	-721.18420	-7.49582	-576.52460	693.15009	1.57623	-492.01785	-793.09479	7.60049	641.76410	776.35474	15.04100	647.19879	-27.11359	616.42505	-986.71759	
1807	18.060	-721.27808	-7.62558	-576.51233	693.02454	1.51094	-492.07874	-793.07428	7.75223	641.71606	776.27551	15.10897	647.18420	-27.26905	616.24347	-986.82288	
1808	18.070	-721.40198	-7.82603	-576.60944	692.93372	1.42595	-492.09738	-793.19330	7.92682	641.67590	776.12061	15.20056	647.14008	-27.29705	616.17261	-986.84479	
1809	18.080	-721.55994	-7.93013	-576.68036	692.83496	1.34367	-492.16461	-793.24677	8.09876	641.61481	776.04352	15.30501	647.11182	-27.44168	616.13263	-987.00671	
1810	18.090	-721.56714	-8.07496	-576.73981	692.79761	1.25096	-492.15649	-793.33252	8.26358	641.51996	775.90399	15.50533	647.15552	-27.81796	616.02710	-987.29248	
1811	18.100	-721.71924	-8.22790	-576.84100	692.70410	1.24287	-492.12689	-793.60028	8.31823	641.43750	775.76849	15.59491	647.05188	-27.80229	615.86072	-987.51898	
